<?xml version="1.0" encoding="utf-8"?>
<!-- Generator: Adobe Illustrator 27.8.1, SVG Export Plug-In . SVG Version: 6.00 Build 0)  -->
<svg version="1.1" id="Layer_1" xmlns="http://www.w3.org/2000/svg" xmlns:xlink="http://www.w3.org/1999/xlink" x="0px" y="0px"
	 viewBox="0 0 181.82 198" style="enable-background:new 0 0 181.82 198;" xml:space="preserve">
<style type="text/css">
	.st0{display:none;fill:#FFFFFF;}
	.st1{fill:#FFFFFF;}
</style>
<g>
	<g>
		<path class="st0" d="M0,0c60.4,0,120.8,0,181.2,0c0,66,0,132,0,198c-60.4,0-120.8,0-181.2,0C0,132,0,66,0,0z M6.13,111.11
			c-0.93,8.54,0.79,17.18,3.61,25.72c2.59,7.85,4.84,15.8,7.31,23.69c0.74,2.36,2.01,4.16,4.71,4.93c1.74,0.5,3.4,1.7,4.8,2.92
			c4.13,3.6,7.91,7.64,12.22,11c6.12,4.78,12.48,9.29,18.96,13.57c4.01,2.65,5.72,1.43,5.92-3.35c0.09-2.07,0.45-4.16,1.02-6.14
			c0.16-0.56,1.67-1.27,2.21-1.05c0.67,0.28,1.35,1.45,1.34,2.22c-0.02,0.89-1.07,1.73-1.19,2.66c-0.33,2.68-1.1,5.58-0.42,8.04
			c0.66,2.39,3.63,1.89,5.82,1.83c9.59-0.25,19.19-0.31,28.76-0.83c8.07-0.43,16.13-1.18,24.14-2.18c5.34-0.66,5.3-0.97,6.1-6.36
			c0.06-0.39,0.04-0.92,0.28-1.14c0.68-0.62,1.5-1.56,2.21-1.52c0.71,0.04,1.51,1.03,1.97,1.79c0.32,0.53-0.02,1.41,0.19,2.05
			c0.41,1.27,0.84,3.41,1.53,3.53c1.36,0.22,3.33-0.27,4.29-1.23c6.41-6.39,12.76-12.85,18.85-19.55
			c5.76-6.34,10.91-13.24,16.83-19.41c3.37-3.51,2.13-7.18,1.93-10.92c-0.03-0.5-1.4-1.43-1.99-1.32c-3.96,0.77-3.98-1.81-3.58-4.3
			c0.59-3.74,2.02-7.39,2.26-11.13c0.5-7.76,1-15.59,0.53-23.34c-0.73-12.08-3.73-23.64-10.67-33.87c-1.13-1.67-1.87-3.65,0.21-5.02
			c2.94-1.94,3.98-4.51,3.67-7.88c-0.08-0.86,0.16-1.8,0.43-2.65c1.53-4.78,1.37-9.39-0.96-13.92c-1.38-2.68-3.64-3.22-5.99-1.24
			c-4.18,3.53-4.58,3.42-6.44-1.75c-0.14-0.38-0.28-0.75-0.39-1.13c-2.72-9.28-8.31-16.4-16.17-21.93c-1.4-0.99-3.06-2.46-3.37-3.96
			c-0.6-2.86-2.4-3.8-4.74-4.23c-4.42-0.81-8.85-1.82-13.31-2.07C94.82,0.29,70.71,1.1,46.93,6.43c-1.31,0.29-2.38,1.76-3.5,2.75
			c-0.71,0.63-1.26,1.95-1.96,2c-6,0.49-9.31,4.95-12.52,8.96c-5.61,7.01-9.01,15.25-10.93,24.05c-0.94,4.32-2.04,5.2-6.41,4.76
			c-1.27-0.13-2.52-0.6-3.75-1c-4.07-1.3-6.5,0.39-6.38,4.72c0.21,7.29,0.59,14.57,0.89,21.86c0.09,2.18,1.13,3.55,3.32,3.99
			c4.08,0.83,4.24,1.08,3.36,5.08C7.09,92.5,5.42,101.43,6.13,111.11z"/>
		<path d="M6.13,111.11C5.42,101.43,7.09,92.5,9.05,83.6c0.88-4,0.73-4.25-3.36-5.08c-2.19-0.44-3.23-1.8-3.32-3.99
			c-0.3-7.29-0.68-14.57-0.89-21.86c-0.12-4.33,2.31-6.02,6.38-4.72c1.23,0.39,2.48,0.87,3.75,1c4.37,0.44,5.47-0.44,6.41-4.76
			c1.92-8.8,5.32-17.03,10.93-24.05c3.2-4,6.51-8.47,12.52-8.96c0.7-0.06,1.25-1.37,1.96-2c1.12-0.99,2.19-2.46,3.5-2.75
			c23.78-5.33,47.88-6.14,72.1-4.78c4.46,0.25,8.89,1.26,13.31,2.07c2.33,0.43,4.14,1.36,4.74,4.23c0.32,1.5,1.97,2.98,3.37,3.96
			c7.85,5.53,13.45,12.65,16.17,21.93c0.11,0.38,0.26,0.76,0.39,1.13c1.86,5.16,2.26,5.27,6.44,1.75c2.35-1.98,4.61-1.44,5.99,1.24
			c2.33,4.53,2.49,9.14,0.96,13.92c-0.27,0.85-0.51,1.79-0.43,2.65c0.31,3.38-0.73,5.94-3.67,7.88c-2.08,1.37-1.34,3.34-0.21,5.02
			c6.93,10.23,9.93,21.79,10.67,33.87c0.47,7.74-0.02,15.57-0.53,23.34c-0.24,3.74-1.66,7.39-2.26,11.13
			c-0.4,2.49-0.38,5.07,3.58,4.3c0.59-0.11,1.96,0.82,1.99,1.32c0.21,3.75,1.44,7.41-1.93,10.92c-5.92,6.17-11.07,13.08-16.83,19.41
			c-6.09,6.7-12.44,13.15-18.85,19.55c-0.96,0.96-2.93,1.45-4.29,1.23c-0.69-0.11-1.12-2.26-1.53-3.53
			c-0.21-0.64,0.13-1.53-0.19-2.05c-0.46-0.76-1.26-1.75-1.97-1.79c-0.71-0.04-1.53,0.9-2.21,1.52c-0.24,0.22-0.22,0.75-0.28,1.14
			c-0.8,5.4-0.76,5.7-6.1,6.36c-8.02,1-16.08,1.75-24.14,2.18c-9.58,0.51-19.17,0.58-28.76,0.83c-2.19,0.06-5.16,0.56-5.82-1.83
			c-0.68-2.46,0.08-5.36,0.42-8.04c0.12-0.92,1.17-1.77,1.19-2.66c0.02-0.77-0.67-1.95-1.34-2.22c-0.54-0.22-2.05,0.49-2.21,1.05
			c-0.56,1.99-0.93,4.08-1.02,6.14c-0.2,4.78-1.92,5.99-5.92,3.35c-6.48-4.28-12.84-8.79-18.96-13.57c-4.31-3.36-8.09-7.4-12.22-11
			c-1.4-1.22-3.06-2.42-4.8-2.92c-2.7-0.77-3.97-2.57-4.71-4.93c-2.47-7.89-4.72-15.84-7.31-23.69
			C6.93,128.29,5.2,119.65,6.13,111.11z M11.75,111.41c0.49,3.54,0.88,7.1,1.52,10.61c0.31,1.71,1.23,2.7,3.42,2.35
			c1.67-0.27,3.63-0.01,5.21,0.63c3.79,1.53,7.44,3.4,11.12,5.17c6.47,3.12,12.93,6.24,19.37,9.43c1.59,0.79,3.48,1.5,4.51,2.82
			c2.53,3.22,5.29,5.39,9.64,4.46c1.18-0.25,2.37-0.45,3.55-0.67c-0.47-1.23-0.67-2.69-1.47-3.64c-4.01-4.74-2.66-11,3.2-12.62
			c8.37-2.32,16.8-4.5,25.33-6.08c4.44-0.82,9.23-0.83,13.69-0.12c5.05,0.81,9.82,3.48,10.88,8.99c1.52,7.92,2.31,16,3.14,24.03
			c0.22,2.11,1.1,5.43-2.54,5.66c-3.62,0.24-3.3-3.11-3.7-5.42c-1.02-6-1.85-12.04-2.85-18.05c-0.13-0.79-0.7-1.9-1.34-2.16
			c-2.75-1.1-5.77-3.05-8.4-2.68c-8.95,1.26-17.79,3.35-26.66,5.17c-2.12,0.43-2.8,1.9-2.77,3.99c0.06,4.9,0.15,9.8-0.09,14.69
			c-0.12,2.52-0.57,5.15-1.5,7.48c-1.02,2.55-0.78,3.77,1.99,4.14c4.65,0.62,9.3,1.44,13.97,1.59c11.28,0.38,22.27-1.67,33.08-4.73
			c4.04-1.14,4.61-2.34,4.32-6.6c-0.38-5.58-0.46-11.19-1.07-16.75c-0.44-4.02,1.24-6.5,4.54-8.22c12.1-6.31,24.2-12.63,36.34-18.86
			c1.81-0.93,2.95-2.09,2.74-4.15c-0.51-5.16-0.7-10.39-1.74-15.45c-2.02-9.8-5.73-18.89-13.02-26.14c-1.9-1.89-3.89-3.28-6.84-2.97
			c-5.66,0.6-11.35,0.96-17.02,1.45c-24.08,2.09-48.16,4.22-72.25,6.26c-12.34,1.05-24.68,2-37.03,2.88
			c-3.1,0.22-4.92,1.52-5.81,4.57C14.43,91.92,12.53,101.49,11.75,111.41z M27.24,139.53c-0.25,0.32-0.5,0.64-0.75,0.95
			c0.88,1.07,1.69,2.24,2.7,3.17c0.35,0.32,1.43,0.31,1.79,0c0.32-0.28,0.38-1.52,0.1-1.74C29.89,141,28.53,140.31,27.24,139.53z"/>
		<path class="st1" d="M11.75,111.41c0.78-9.92,2.68-19.49,5.43-28.94c0.89-3.05,2.71-4.35,5.81-4.57
			c12.35-0.89,24.69-1.84,37.03-2.88c24.09-2.05,48.16-4.18,72.25-6.26c5.67-0.49,11.36-0.85,17.02-1.45
			c2.95-0.31,4.94,1.08,6.84,2.97c7.3,7.24,11,16.34,13.02,26.14c1.04,5.05,1.22,10.29,1.74,15.45c0.21,2.07-0.93,3.22-2.74,4.15
			c-12.14,6.23-24.24,12.55-36.34,18.86c-3.3,1.72-4.98,4.2-4.54,8.22c0.61,5.55,0.69,11.16,1.07,16.75
			c0.29,4.26-0.28,5.46-4.32,6.6c-10.8,3.06-21.8,5.11-33.08,4.73c-4.67-0.16-9.33-0.97-13.97-1.59c-2.77-0.37-3.01-1.58-1.99-4.14
			c0.93-2.33,1.38-4.96,1.5-7.48c0.24-4.89,0.15-9.79,0.09-14.69c-0.03-2.08,0.65-3.55,2.77-3.99c8.87-1.81,17.71-3.91,26.66-5.17
			c2.64-0.37,5.65,1.58,8.4,2.68c0.65,0.26,1.21,1.36,1.34,2.16c1.01,6.01,1.83,12.04,2.85,18.05c0.39,2.32,0.08,5.66,3.7,5.42
			c3.64-0.24,2.75-3.55,2.54-5.66c-0.83-8.04-1.61-16.11-3.14-24.03c-1.06-5.51-5.83-8.18-10.88-8.99
			c-4.46-0.71-9.25-0.7-13.69,0.12c-8.53,1.58-16.96,3.77-25.33,6.08c-5.85,1.62-7.21,7.88-3.2,12.62c0.8,0.95,1,2.41,1.47,3.64
			c-1.18,0.22-2.37,0.42-3.55,0.67c-4.35,0.93-7.11-1.24-9.64-4.46c-1.03-1.31-2.92-2.03-4.51-2.82c-6.44-3.19-12.9-6.31-19.37-9.43
			c-3.68-1.78-7.34-3.64-11.12-5.17c-1.58-0.64-3.54-0.9-5.21-0.63c-2.19,0.36-3.11-0.64-3.42-2.35
			C12.63,118.51,12.24,114.95,11.75,111.41z M46.37,98.8c0.01,0.06,0.02,0.11,0.03,0.17c9.14-0.9,18.28-1.77,27.4-2.74
			c1-0.11,2.73-0.71,2.79-1.23c0.32-2.79,0.59-5.72,0-8.4c-0.16-0.71-3.44-1.12-5.26-1.02c-7.16,0.37-14.31,1.02-21.47,1.52
			c-2.79,0.2-5.62,0.09-8.36,0.52c-1.3,0.2-3.04,1.05-3.58,2.11c-2.58,5.09,0.14,9.18,5.75,9.06C44.57,98.78,45.47,98.8,46.37,98.8z
			 M129.7,91.73c0-0.11,0-0.22,0-0.33c4.37-0.37,8.76-0.66,13.12-1.15c3.62-0.4,4.52-2.1,4.11-7.12c-0.24-2.94-1.46-3.99-4.88-3.81
			c-6.77,0.36-13.54,0.77-20.29,1.33c-5.39,0.45-5.89,1.12-5.81,6.46c0.05,3.38,1.12,4.53,4.49,4.6
			C123.51,91.78,126.61,91.73,129.7,91.73z M104.91,146.66c-5.01,0.52-8.98,1-12.96,1.34c-5.52,0.48-6.25,1.27-6.03,6.88
			c0.13,3.46,0.91,4.39,4.33,4.16c5.18-0.34,10.35-0.89,15.5-1.52c1.06-0.13,2.78-0.91,2.9-1.61c0.41-2.39,0.76-5.04,0.07-7.26
			C108.36,147.5,105.75,147.06,104.91,146.66z M138.56,104.02c-0.03,0-0.06,0-0.09,0c0-1.9,0.42-3.93-0.14-5.64
			c-0.43-1.31-1.98-2.92-3.25-3.14c-1.89-0.33-2.52,1.51-2.52,3.29c0.01,3.5-0.25,7.02,0.17,10.47c0.15,1.26,1.91,2.33,2.94,3.49
			c0.96-1.13,2.37-2.11,2.78-3.41C138.94,107.53,138.56,105.71,138.56,104.02z M60.8,108.97c-0.11-1.49,0.07-2.7-0.35-3.64
			c-0.37-0.84-1.37-1.84-2.18-1.92c-0.86-0.09-2.58,0.77-2.61,1.28c-0.16,2.91-0.07,5.86,0.29,8.75c0.07,0.57,1.73,1.35,2.61,1.29
			c0.67-0.05,1.55-1.19,1.8-2C60.75,111.41,60.7,109.97,60.8,108.97z"/>
		<path class="st1" d="M27.24,139.53c1.3,0.78,2.65,1.47,3.84,2.39c0.29,0.22,0.23,1.46-0.1,1.74c-0.36,0.31-1.45,0.32-1.79,0
			c-1.01-0.93-1.81-2.1-2.7-3.17C26.74,140.17,26.99,139.85,27.24,139.53z"/>
		<path d="M46.37,98.8c-0.9,0-1.8-0.02-2.69,0c-5.61,0.12-8.33-3.97-5.75-9.06c0.54-1.06,2.27-1.91,3.58-2.11
			c2.75-0.43,5.57-0.33,8.36-0.52c7.16-0.51,14.3-1.15,21.47-1.52c1.82-0.09,5.1,0.31,5.26,1.02c0.59,2.68,0.32,5.61,0,8.4
			c-0.06,0.52-1.78,1.13-2.79,1.23c-9.13,0.97-18.27,1.84-27.4,2.74C46.39,98.91,46.38,98.86,46.37,98.8z"/>
		<path d="M129.7,91.73c-3.09,0-6.18,0.05-9.27-0.01c-3.36-0.07-4.43-1.22-4.49-4.6c-0.08-5.33,0.41-6.01,5.81-6.46
			c6.76-0.56,13.53-0.96,20.29-1.33c3.42-0.18,4.64,0.87,4.88,3.81c0.41,5.01-0.49,6.71-4.11,7.12c-4.36,0.49-8.74,0.77-13.12,1.15
			C129.7,91.51,129.7,91.62,129.7,91.73z"/>
		<path d="M104.91,146.66c0.84,0.4,3.45,0.84,3.81,1.99c0.69,2.22,0.34,4.87-0.07,7.26c-0.12,0.7-1.84,1.48-2.9,1.61
			c-5.15,0.64-10.32,1.19-15.5,1.52c-3.42,0.22-4.2-0.7-4.33-4.16c-0.22-5.61,0.51-6.4,6.03-6.88
			C95.93,147.66,99.9,147.18,104.91,146.66z"/>
		<path d="M138.56,104.02c0,1.7,0.37,3.51-0.11,5.06c-0.41,1.3-1.81,2.29-2.78,3.41c-1.03-1.16-2.79-2.23-2.94-3.49
			c-0.42-3.45-0.16-6.97-0.17-10.47c0-1.78,0.63-3.62,2.52-3.29c1.27,0.22,2.82,1.83,3.25,3.14c0.56,1.71,0.14,3.75,0.14,5.64
			C138.5,104.01,138.53,104.01,138.56,104.02z"/>
		<path d="M60.8,108.97c-0.1,1-0.04,2.45-0.44,3.76c-0.25,0.82-1.13,1.95-1.8,2c-0.87,0.06-2.53-0.71-2.61-1.29
			c-0.36-2.89-0.45-5.84-0.29-8.75c0.03-0.52,1.75-1.38,2.61-1.28c0.81,0.09,1.8,1.08,2.18,1.92
			C60.87,106.27,60.69,107.48,60.8,108.97z"/>
	</g>
</g>
</svg>
